<svg xmlns="http://www.w3.org/2000/svg" xmlns:xlink="http://www.w3.org/1999/xlink" viewBox="0 0 237 179.87"><defs><style>.cls-1{fill:url(#未命名漸層_135);}.cls-2,.cls-3{opacity:0.8;}.cls-2{fill:url(#未命名漸層_346);}.cls-3{fill:url(#未命名漸層_91);}.cls-4{fill:url(#未命名漸層_140);}</style><linearGradient id="未命名漸層_135" x1="-8.95" y1="75.78" x2="216.05" y2="75.78" gradientTransform="matrix(1.05, -0.1, 0.1, 1, 0.01, 12.13)" gradientUnits="userSpaceOnUse"><stop offset="0.03" stop-color="#fdf629"/><stop offset="0.4" stop-color="#fff"/><stop offset="0.65" stop-color="#fff915"/><stop offset="0.7" stop-color="#fff917"/><stop offset="0.72" stop-color="#fff91e"/><stop offset="0.73" stop-color="#fff929"/><stop offset="0.74" stop-color="#fffa3a"/><stop offset="0.75" stop-color="#fffa50"/><stop offset="0.76" stop-color="#fffb6c"/><stop offset="0.77" stop-color="#fffc8c"/><stop offset="0.78" stop-color="#fffdb2"/><stop offset="0.78" stop-color="#fffedb"/><stop offset="0.79" stop-color="#fffeec"/><stop offset="1" stop-color="#fffc8d"/></linearGradient><linearGradient id="未命名漸層_346" x1="5.64" y1="90.34" x2="185.03" y2="90.34" gradientTransform="translate(0.69 12.27) rotate(-5.52)" gradientUnits="userSpaceOnUse"><stop offset="0.1" stop-color="#eda9a9"/><stop offset="0.39" stop-color="#94c4e5"/><stop offset="0.53" stop-color="#6ecfff"/><stop offset="0.72" stop-color="#a8bed7"/><stop offset="0.92" stop-color="#eda9a9"/></linearGradient><linearGradient id="未命名漸層_91" x1="118.03" y1="120.55" x2="194.41" y2="120.55" gradientTransform="translate(22.5 -13.27) rotate(3.47)" gradientUnits="userSpaceOnUse"><stop offset="0.16" stop-color="#e7e0e0"/><stop offset="0.53" stop-color="#edacac"/><stop offset="0.96" stop-color="#edaaaa"/><stop offset="1" stop-color="#eda9a9"/></linearGradient><linearGradient id="未命名漸層_140" x1="-8.83" y1="120.31" x2="215.69" y2="120.31" gradientTransform="matrix(1.05, -0.1, 0.1, 1, 0.01, 12.13)" gradientUnits="userSpaceOnUse"><stop offset="0" stop-color="#fdf629"/><stop offset="0.26" stop-color="#fff"/><stop offset="0.5" stop-color="#fff915"/><stop offset="0.65" stop-color="#fff917"/><stop offset="0.7" stop-color="#fff91e"/><stop offset="0.74" stop-color="#fff929"/><stop offset="0.77" stop-color="#fffa3a"/><stop offset="0.8" stop-color="#fffa50"/><stop offset="0.83" stop-color="#fffb6c"/><stop offset="0.85" stop-color="#fffc8c"/><stop offset="0.87" stop-color="#fffdb2"/><stop offset="0.88" stop-color="#fffedb"/><stop offset="0.89" stop-color="#fffeec"/><stop offset="1" stop-color="#fffc8d"/></linearGradient></defs><title>資產 1</title><g id="圖層_2" data-name="圖層 2"><g id="圖層_1-2" data-name="圖層 1"><path class="cls-1" d="M24.06,108.68a14.23,14.23,0,0,1-.29-1.77c-2-20,38.84-40.41,91.16-45.57s96.33,6.87,98.3,26.88a14.43,14.43,0,0,1-.1,3.61c7.94-.63,15.87-1.36,23.76-2.24a17.92,17.92,0,0,0,0-3.7c-2.47-25-57.48-40-122.88-33.6s-116.41,32-113.95,57a17.77,17.77,0,0,0,.32,2l1.46-.16C9.27,110.35,16.67,109.54,24.06,108.68Z"/><path class="cls-2" d="M131,179.24s91.76-122.76,45.85-164S93.72,29.41,93.72,29.41l.43.82s-59-31.15-80,26.9,118,122.74,118,122.74"/><path class="cls-3" d="M176.66,154.56s46.76-45.52,30.2-65.92-35.92.42-35.92.42l.13.37s-22.75-17-35.42,6,41.46,59.47,41.46,59.47"/><path class="cls-4" d="M213.12,91.83c-2.87,18.8-41.88,37.11-91.05,42-50.76,5-93.69-6.17-98-25.11-7.39.86-14.79,1.67-22.2,2.4l-1.46.16c5.12,23.81,58.92,37.88,122.56,31.6,62.17-6.13,111.34-29.49,113.92-53.26C229,90.47,221.07,91.2,213.12,91.83Z"/></g></g></svg>